<?xml version="1.0" encoding="UTF-8"?>
<svg width="100px" height="67px" viewBox="0 0 100 67" version="1.1" xmlns="http://www.w3.org/2000/svg" xmlns:xlink="http://www.w3.org/1999/xlink">
    <!-- Generator: Sketch 46.2 (44496) - http://www.bohemiancoding.com/sketch -->
    <title>MEER-Logo</title>
    <desc>Created with Sketch.</desc>
    <defs></defs>
    <g id="Page-1" stroke="none" stroke-width="1" fill="none" fill-rule="evenodd">
        <g id="Screendesign-Start" transform="translate(-149.000000, -56.000000)">
            <g id="fixed-header-copy" transform="translate(0.000000, 40.000000)">
                <g id="MEER-Logo" transform="translate(150.000000, 17.000000)">
                    <path d="M0.169167368,32.8733181 C0.169167368,15.0911399 21.9695154,0.675298299 48.8656388,0.675298299 C75.7597259,0.675298299 97.5610921,15.0911399 97.5610921,32.8733181 C97.5610921,50.6565118 75.7597259,65.0713379 48.8656388,65.0713379 C21.9695154,65.0713379 0.169167368,50.6565118 0.169167368,32.8733181" id="Fill-1" fill="#005093"></path>
                    <path d="M0.169167368,32.8733181 C0.169167368,15.0911399 21.9695154,0.675298299 48.8656388,0.675298299 C75.7597259,0.675298299 97.5610921,15.0911399 97.5610921,32.8733181 C97.5610921,50.6565118 75.7597259,65.0713379 48.8656388,65.0713379 C21.9695154,65.0713379 0.169167368,50.6565118 0.169167368,32.8733181 L0.169167368,32.8733181 Z" id="Stroke-2" stroke="#032C55" stroke-width="1.84"></path>
                    <path d="M2.65851217,32.8733181 C2.65851217,16.5046966 23.3460365,3.2363544 48.8656388,3.2363544 C74.384223,3.2363544 95.0707292,16.5046966 95.0707292,32.8733181 C95.0707292,49.2419396 74.384223,62.5112973 48.8656388,62.5112973 C23.3460365,62.5112973 2.65851217,49.2419396 2.65851217,32.8733181 L2.65851217,32.8733181 Z" id="Stroke-4" stroke="#FFFFFE" stroke-width="1.38"></path>
                    <path d="M4.64184292,32.8733181 C4.64184292,16.5046966 26.7527227,5.21350597 48.8656388,5.21350597 C70.6985672,5.21350597 93.0873984,16.5046966 93.0873984,32.8733181 C93.0873984,49.2419396 70.1070297,60.5310993 48.8656388,60.5310993 C26.6346188,60.5310993 4.64184292,49.2419396 4.64184292,32.8733181 L4.64184292,32.8733181 Z" id="Stroke-5" stroke="#FFFFFE" stroke-width="0.46"></path>
                    <g id="Group-9" transform="translate(9.163232, 4.061945)">
                        <path d="M48.0653832,0.304645849 C48.1203626,0.768723026 46.7692949,2.35795887 46.6715537,2.79766438 C46.346768,3.3835999 45.7776295,4.32495557 46.272444,4.94034019 C46.3620401,5.43792841 46.4943979,5.94973343 46.8140929,6.36506728 C47.2223658,6.51637471 47.4117393,7.05864433 47.9360798,7.0312262 C48.5092909,7.35110434 48.9511623,7.88626555 49.5610263,8.14927647 C49.9041385,8.72302615 50.6107255,8.68139122 51.0067808,9.18202589 C51.7683472,9.60954557 52.6357999,9.85123128 53.357659,10.3599898 C54.0235205,10.567149 54.4246665,11.2231531 55.1363442,11.3612592 C55.506946,11.8832191 56.1880797,11.8801726 56.5861712,12.365575 C57.1084754,12.662097 57.5391474,13.1312516 58.012581,13.5364306 C58.555248,13.652196 58.8189455,14.235085 59.3524492,14.3802996 C59.9226059,15.0200559 60.5263611,15.6090378 61.0690281,16.3097233 C61.7043456,16.6610815 62.2164684,17.2206144 62.7876433,17.6989084 C63.0991932,18.0319878 63.469795,18.2706271 63.7915263,18.6016756 C64.2568149,18.8677329 64.6325074,19.2982991 65.2637523,19.2962681 C65.6343541,19.3693831 65.9571035,19.1805027 66.3002157,19.0952018 C67.9109083,19.1287129 69.737446,19.413049 71.083423,20.2162986 C71.7370669,20.2579335 72.2451173,20.624524 72.8580357,20.7047474 C73.0840621,20.6184311 73.388485,20.5412541 73.6175658,20.7149023 C73.6898536,20.7890327 73.7835222,20.9748667 73.6470918,21.061183 C73.0026111,21.0540746 72.5118691,21.6775831 71.886733,21.7121097 C71.2829778,22.239147 70.3483281,22.6900228 70.5000305,23.6476263 C70.4531962,24.0507743 70.1457189,24.5412541 70.6211888,24.804265 C71.1302573,25.2195989 71.8144453,25.4176187 72.503724,25.4815943 C73.2031841,25.6369637 73.7183614,24.9809596 74.4157852,25.0825083 C75.0368487,25.0327494 75.5907152,24.7098248 76.2219601,24.6661589 C76.6658678,24.2599645 77.2156618,24.2711348 77.70844,24.0264026 C78.3386668,23.6090378 79.0299818,23.450622 79.678535,23.0667682 C80.4177024,22.6534653 81.3228262,22.9154608 82.109846,22.6676822 C83.5912353,22.7215029 85.0644794,22.5651181 86.607975,22.974359 C86.8065117,23.2749429 86.5081976,23.6171617 86.3605677,23.8720487 C85.9675669,24.2619954 85.3444671,24.5006347 85.1998916,25.0489972 C84.7223854,25.6227469 84.9015775,26.498096 84.6979501,27.2414318 C84.496359,27.5349073 84.2621875,27.8233054 83.9781273,28.0345265 C84.0412518,28.4193958 84.5391207,28.3219091 84.7631109,28.5879665 C84.8119814,28.9291698 84.8700152,29.2652958 84.9321216,29.612592 C84.667406,30.1843107 85.2945783,30.5285605 85.1703656,31.0728611 C85.6387086,31.743082 85.3129048,32.6214775 85.8362272,33.2835745 C86.2088653,34.1802488 86.6792446,35.1043412 87.3410336,35.8903275 C87.7523609,36.7504443 88.429422,37.3455192 89.1024105,37.8837268 C89.2704031,38.0299568 89.374253,38.2797664 89.6389686,38.2838284 C89.5178103,38.496065 89.7092201,39.1033257 89.2928021,38.936786 C88.5770518,39.3450114 87.7910501,38.974359 86.9999577,38.9906068 L85.0828059,38.7062706 C84.4423977,38.1812643 83.4038981,38.345773 82.8408683,37.7171871 C81.9367627,37.5303376 81.2871914,36.9271389 80.6274386,36.3604976 C80.2995985,35.7867479 79.804784,35.3785225 79.4738895,34.8352374 C78.8782794,34.9418634 78.7683206,34.2482864 78.2938688,34.1883727 C78.0322076,33.944656 77.9130856,33.4846408 77.5343386,33.468393 C77.2054804,32.9129221 76.6587409,32.6549886 76.4154061,32.0619447 C76.0977474,31.4039096 75.3392354,31.379538 74.7283532,31.3602437 C74.1235799,31.5806042 73.5473144,32.0619447 73.2500184,32.6549886 C72.4548535,32.6448337 71.6973596,32.7920792 71.0284436,33.2876365 C70.5560281,33.4501142 70.109066,33.7039858 69.6081426,33.6826606 C68.9697707,34.2513328 68.1308259,34.128459 67.5800138,34.8311754 C66.9375694,35.2495557 66.3755578,35.7197258 65.6791522,35.8588474 C65.0641974,36.5087586 64.2384884,36.69967 63.6622229,37.2927139 C63.0207966,38.0594059 62.1991601,38.8931201 61.2858913,39.2932216 C60.2718269,39.8375222 59.6100379,41.0368114 58.4575069,41.2216299 C57.7407385,41.911145 56.7724903,41.6613354 55.9997243,42.1579081 C54.9316987,42.4848946 53.8809814,42.9804519 52.9310596,43.7044935 C52.3629392,43.7776085 52.0157545,44.8469155 51.3376753,44.3269865 C50.8764593,44.55344 50.2889943,44.2162986 49.8766488,44.6285859 C49.3227823,44.620462 48.7658614,44.7443514 48.2181037,44.6143691 C47.722271,44.7138868 47.2121844,44.7453668 46.7468959,44.9718203 C46.0881613,45.0398578 45.342885,44.7027164 44.7493112,45.0429043 C44.0243977,45.0429043 43.2037793,44.8530084 42.5257001,45.1657781 C42.0726292,45.171871 41.7122087,44.9027672 41.342625,44.7159177 C40.435465,44.5788271 39.5547766,44.1523229 38.5956916,44.1827875 C38.0408069,43.8690023 37.409562,44.3056613 36.8994754,43.8791571 C36.599125,43.8690023 36.2855389,43.8750952 36.0696938,44.1431835 C35.7774885,44.5595329 36.4932388,44.8611323 36.0839477,45.2815435 C36.189834,45.8644326 35.6807655,45.9375476 35.3376534,46.239147 C35.0586838,46.8027418 34.3867135,47.0129474 33.8939352,47.3145468 C33.6953985,47.2982991 33.5925667,47.1256664 33.4459549,47.0403656 C32.6131189,46.7306423 31.8820966,46.2635187 31.0187165,46.0187865 C30.703094,45.7872556 30.3742358,45.5851739 30.0199242,45.4298045 C29.5597263,44.9982229 28.9732794,44.4244732 28.8602662,43.7623762 C28.6087864,43.4404671 28.4489389,42.8890581 28.0243758,42.8301599 C27.5662141,42.1254125 26.7079247,42.0441736 25.9636666,41.8979436 C25.3751835,41.8187357 24.8976772,41.4277735 24.3153029,41.286621 C23.4712674,40.9748667 22.5773432,40.7595837 21.7159993,40.4935263 C21.0969721,40.4752475 20.7039712,40.071084 20.1358508,39.9796903 C19.044408,39.3094694 17.4133526,39.5694339 16.3259824,38.9053059 C15.9024374,38.9520183 15.7782247,38.4351358 15.3434802,38.5732419 C14.0321199,38.6829144 12.6260728,38.0990099 11.2943497,37.9984768 C10.7445557,38.1629855 10.0888755,38.2685961 9.52991835,37.9669967 C9.26011206,37.6846915 8.91190923,37.7283575 8.55148875,37.6095456 C8.05565606,37.3698908 7.43051999,37.2388931 6.86545399,37.249048 C5.51133186,36.7545062 3.99023528,37.0896167 2.74810822,36.40721 C2.35408923,35.9553186 2.4579392,35.2414318 2.67276609,34.7732927 C2.98838854,34.5813658 3.37018989,34.4006093 3.70719322,34.602691 C4.24375138,35.1703478 5.18247363,34.9956842 5.91247782,35.1307438 C6.02956356,35.1124651 6.16497578,35.0352881 6.24235418,34.9296776 C6.32176886,34.7611069 6.23522722,34.5275451 6.07130718,34.4463062 C5.53373088,34.3488195 5.15702021,33.9680122 4.64082478,33.8431074 C3.89860296,33.7121097 3.0342047,33.6643818 2.52717251,33.0713379 C2.01606777,32.4610307 1.3278072,31.8436151 1.0936357,31.0759076 C0.758668653,30.6859609 0.827901964,30.1843107 0.728124545,29.7364813 C0.588639785,28.4671236 1.04069258,27.0403656 0.816702458,25.798426 C0.840119608,24.8966743 1.02542053,23.960396 0.876772537,23.1063722 C1.2066489,22.2482864 0.213965393,21.8014725 0.33105114,20.9982229 C0.371776618,19.8507235 -0.414225096,18.5427774 0.537732938,17.5343996 L0.62020203,17.1789794 C1.18628617,16.7209952 1.71775365,15.926885 2.47524752,15.9157146 C3.31215609,15.0698147 4.50643071,15.4496065 5.55002107,15.5653719 C5.88295185,15.7877634 6.33602278,16.1117035 6.73716873,15.8151815 C6.92145152,15.8080731 7.04159168,15.9126682 7.17089507,15.9989845 C7.44273763,16.035542 7.77057772,15.8608784 7.9986404,16.1056106 C8.2440114,16.1370906 8.3295349,15.8527545 8.49141867,15.7319117 C9.06870231,15.2475248 9.29778312,14.5112973 9.99011624,14.1274435 C10.2456686,13.831937 10.4533685,13.503935 10.6030347,13.1464839 C10.9563282,12.8895659 11.1609737,12.3970551 11.624226,12.3462808 C12.7146507,11.7197258 13.7643499,10.9093679 14.8557927,10.2848439 C15.3088636,10.2929678 15.6479032,9.76593044 16.1213369,9.83701447 C16.6029156,9.62274689 17.0396964,9.21756791 17.5406197,9.100787 C18.1515019,8.75349073 18.7450757,8.30870779 19.4027922,8.15333841 C19.8008837,7.63442498 20.4097296,7.83346027 20.8851996,7.54201574 C21.378996,7.50139629 21.7821782,7.0901244 22.2708839,7.02716425 C22.8359499,7.05661335 23.2818939,6.54582381 23.8418692,6.54582381 C24.145274,6.23813151 24.5301298,6.30820005 24.8925866,6.26148769 C25.6124094,5.95176441 26.3546312,5.72429551 27.1355422,5.66031988 C27.6140666,5.27545062 28.2666924,5.59431328 28.769652,5.30083778 C29.45384,5.16984006 30.2021707,5.34856563 30.8507239,5.04290429 C31.6723604,5.16882457 32.3443308,4.6529576 33.2066928,4.94338665 C33.8745906,4.82355928 34.5923771,4.93424727 35.2663838,4.82355928 C36.0472948,5.21350597 36.7233377,4.71287129 37.4604689,4.89667428 C37.6488242,5.19116527 37.974628,4.97994415 38.2169446,4.93526276 C38.5732925,4.98603707 39.0314542,5.23076923 39.3521673,4.97892866 C39.8724353,4.5432851 40.1279876,3.93805534 40.6665821,3.51459761 C41.8486391,2.79563341 44.0773408,0.378776339 45.4304448,0.273165778 C45.8132643,-0.0700685453 46.3294597,0.157400355 46.7743856,0.0385884742 C47.1989487,0.126935771 47.6805274,0.13505966 48.0653832,0.304645849 L48.0653832,0.304645849 Z M53.6641182,20.5625793 C52.9229145,20.4041635 52.1206226,19.8618939 51.3753464,20.2183295 C50.0650041,20.0528053 48.7373536,19.7938563 47.4514466,19.7197258 C46.7764218,19.9715664 46.0056922,19.8101041 45.3001233,19.9106372 C44.8490886,20.1198274 44.3400201,20.0649911 43.8370605,20.0416349 C43.2709764,20.5097741 42.4829384,19.9756283 41.9239812,20.440721 C41.0046035,20.2112211 40.3132886,20.9870526 39.3827114,20.6803757 C38.7942283,20.952526 38.1029133,20.7626301 37.4961037,20.9129221 C35.7387993,21.4430058 33.7381602,21.0459507 31.833226,20.7575527 L31.4605879,20.8682407 C31.8719152,21.2815435 32.3972739,21.4947956 32.903288,21.7567911 C33.8562641,22.0025387 34.9639971,22.0979944 35.7907243,22.6260472 C36.9809264,22.8748413 37.9410295,23.5359228 38.9683297,24.0822544 C39.7787667,24.1919269 40.2440553,24.8783955 41.0606011,24.99213 C41.5900323,25.5953288 42.5460629,25.4876872 43.0989112,26.0644834 C43.9042575,26.3346027 44.665824,26.7001777 45.4579345,27.0170094 C46.1237961,27.1297284 46.9026708,27.4201574 47.4962446,27.0363036 C48.2965003,26.936786 49.1130461,26.8921046 49.8440684,26.4523991 C50.4254246,26.5448083 50.9996538,25.9131759 51.5301032,26.4706778 C51.9628114,26.5955826 52.3344314,27.0972328 52.4240274,27.5542016 C52.8353547,28.4437675 53.7486236,28.8702716 54.6649468,28.914953 C55.4937103,28.5798426 56.4141061,28.6082762 57.3100666,28.5219599 C57.8832776,28.6631125 58.7201862,29.098756 59.224164,28.4640772 C59.7128697,28.4417365 60.1272515,28.0538208 60.6241023,28.0385885 C61.0252482,27.703478 61.4946094,27.6953542 61.9344445,27.484133 C63.3018024,27.6202082 64.9379485,28.2264534 65.9184143,26.8809342 C66.8296469,25.3505966 65.2902238,24.2538715 64.6732329,22.9540493 C64.3749187,22.7824321 64.0725321,22.6270627 63.7294199,22.5448083 C62.9546177,22.7215029 62.0454214,22.4026403 61.239057,22.2807819 C61.0568105,21.7933486 60.5192342,22.1040873 60.2535004,21.7781163 C59.3667032,21.5963442 58.4554706,21.4623001 57.6592875,21.1282051 C56.2766576,20.7159177 55.0650746,20.9322163 53.6641182,20.5625793 L53.6641182,20.5625793 Z" id="Fill-6" fill="#032C55"></path>
                        <path d="M48.0653832,0.304645849 C48.1203626,0.768723026 46.7692949,2.35795887 46.6715537,2.79766438 C46.346768,3.3835999 45.7776295,4.32495557 46.272444,4.94034019 C46.3620401,5.43792841 46.4943979,5.94973343 46.8140929,6.36506728 C47.2223658,6.51637471 47.4117393,7.05864433 47.9360798,7.0312262 C48.5092909,7.35110434 48.9511623,7.88626555 49.5610263,8.14927647 C49.9041385,8.72302615 50.6107255,8.68139122 51.0067808,9.18202589 C51.7683472,9.60954557 52.6357999,9.85123128 53.357659,10.3599898 C54.0235205,10.567149 54.4246665,11.2231531 55.1363442,11.3612592 C55.506946,11.8832191 56.1880797,11.8801726 56.5861712,12.365575 C57.1084754,12.662097 57.5391474,13.1312516 58.012581,13.5364306 C58.555248,13.652196 58.8189455,14.235085 59.3524492,14.3802996 C59.9226059,15.0200559 60.5263611,15.6090378 61.0690281,16.3097233 C61.7043456,16.6610815 62.2164684,17.2206144 62.7876433,17.6989084 C63.0991932,18.0319878 63.469795,18.2706271 63.7915263,18.6016756 C64.2568149,18.8677329 64.6325074,19.2982991 65.2637523,19.2962681 C65.6343541,19.3693831 65.9571035,19.1805027 66.3002157,19.0952018 C67.9109083,19.1287129 69.737446,19.413049 71.083423,20.2162986 C71.7370669,20.2579335 72.2451173,20.624524 72.8580357,20.7047474 C73.0840621,20.6184311 73.388485,20.5412541 73.6175658,20.7149023 C73.6898536,20.7890327 73.7835222,20.9748667 73.6470918,21.061183 C73.0026111,21.0540746 72.5118691,21.6775831 71.886733,21.7121097 C71.2829778,22.239147 70.3483281,22.6900228 70.5000305,23.6476263 C70.4531962,24.0507743 70.1457189,24.5412541 70.6211888,24.804265 C71.1302573,25.2195989 71.8144453,25.4176187 72.503724,25.4815943 C73.2031841,25.6369637 73.7183614,24.9809596 74.4157852,25.0825083 C75.0368487,25.0327494 75.5907152,24.7098248 76.2219601,24.6661589 C76.6658678,24.2599645 77.2156618,24.2711348 77.70844,24.0264026 C78.3386668,23.6090378 79.0299818,23.450622 79.678535,23.0667682 C80.4177024,22.6534653 81.3228262,22.9154608 82.109846,22.6676822 C83.5912353,22.7215029 85.0644794,22.5651181 86.607975,22.974359 C86.8065117,23.2749429 86.5081976,23.6171617 86.3605677,23.8720487 C85.9675669,24.2619954 85.3444671,24.5006347 85.1998916,25.0489972 C84.7223854,25.6227469 84.9015775,26.498096 84.6979501,27.2414318 C84.496359,27.5349073 84.2621875,27.8233054 83.9781273,28.0345265 C84.0412518,28.4193958 84.5391207,28.3219091 84.7631109,28.5879665 C84.8119814,28.9291698 84.8700152,29.2652958 84.9321216,29.612592 C84.667406,30.1843107 85.2945783,30.5285605 85.1703656,31.0728611 C85.6387086,31.743082 85.3129048,32.6214775 85.8362272,33.2835745 C86.2088653,34.1802488 86.6792446,35.1043412 87.3410336,35.8903275 C87.7523609,36.7504443 88.429422,37.3455192 89.1024105,37.8837268 C89.2704031,38.0299568 89.374253,38.2797664 89.6389686,38.2838284 C89.5178103,38.496065 89.7092201,39.1033257 89.2928021,38.936786 C88.5770518,39.3450114 87.7910501,38.974359 86.9999577,38.9906068 L85.0828059,38.7062706 C84.4423977,38.1812643 83.4038981,38.345773 82.8408683,37.7171871 C81.9367627,37.5303376 81.2871914,36.9271389 80.6274386,36.3604976 C80.2995985,35.7867479 79.804784,35.3785225 79.4738895,34.8352374 C78.8782794,34.9418634 78.7683206,34.2482864 78.2938688,34.1883727 C78.0322076,33.944656 77.9130856,33.4846408 77.5343386,33.468393 C77.2054804,32.9129221 76.6587409,32.6549886 76.4154061,32.0619447 C76.0977474,31.4039096 75.3392354,31.379538 74.7283532,31.3602437 C74.1235799,31.5806042 73.5473144,32.0619447 73.2500184,32.6549886 C72.4548535,32.6448337 71.6973596,32.7920792 71.0284436,33.2876365 C70.5560281,33.4501142 70.109066,33.7039858 69.6081426,33.6826606 C68.9697707,34.2513328 68.1308259,34.128459 67.5800138,34.8311754 C66.9375694,35.2495557 66.3755578,35.7197258 65.6791522,35.8588474 C65.0641974,36.5087586 64.2384884,36.69967 63.6622229,37.2927139 C63.0207966,38.0594059 62.1991601,38.8931201 61.2858913,39.2932216 C60.2718269,39.8375222 59.6100379,41.0368114 58.4575069,41.2216299 C57.7407385,41.911145 56.7724903,41.6613354 55.9997243,42.1579081 C54.9316987,42.4848946 53.8809814,42.9804519 52.9310596,43.7044935 C52.3629392,43.7776085 52.0157545,44.8469155 51.3376753,44.3269865 C50.8764593,44.55344 50.2889943,44.2162986 49.8766488,44.6285859 C49.3227823,44.620462 48.7658614,44.7443514 48.2181037,44.6143691 C47.722271,44.7138868 47.2121844,44.7453668 46.7468959,44.9718203 C46.0881613,45.0398578 45.342885,44.7027164 44.7493112,45.0429043 C44.0243977,45.0429043 43.2037793,44.8530084 42.5257001,45.1657781 C42.0726292,45.171871 41.7122087,44.9027672 41.342625,44.7159177 C40.435465,44.5788271 39.5547766,44.1523229 38.5956916,44.1827875 C38.0408069,43.8690023 37.409562,44.3056613 36.8994754,43.8791571 C36.599125,43.8690023 36.2855389,43.8750952 36.0696938,44.1431835 C35.7774885,44.5595329 36.4932388,44.8611323 36.0839477,45.2815435 C36.189834,45.8644326 35.6807655,45.9375476 35.3376534,46.239147 C35.0586838,46.8027418 34.3867135,47.0129474 33.8939352,47.3145468 C33.6953985,47.2982991 33.5925667,47.1256664 33.4459549,47.0403656 C32.6131189,46.7306423 31.8820966,46.2635187 31.0187165,46.0187865 C30.703094,45.7872556 30.3742358,45.5851739 30.0199242,45.4298045 C29.5597263,44.9982229 28.9732794,44.4244732 28.8602662,43.7623762 C28.6087864,43.4404671 28.4489389,42.8890581 28.0243758,42.8301599 C27.5662141,42.1254125 26.7079247,42.0441736 25.9636666,41.8979436 C25.3751835,41.8187357 24.8976772,41.4277735 24.3153029,41.286621 C23.4712674,40.9748667 22.5773432,40.7595837 21.7159993,40.4935263 C21.0969721,40.4752475 20.7039712,40.071084 20.1358508,39.9796903 C19.044408,39.3094694 17.4133526,39.5694339 16.3259824,38.9053059 C15.9024374,38.9520183 15.7782247,38.4351358 15.3434802,38.5732419 C14.0321199,38.6829144 12.6260728,38.0990099 11.2943497,37.9984768 C10.7445557,38.1629855 10.0888755,38.2685961 9.52991835,37.9669967 C9.26011206,37.6846915 8.91190923,37.7283575 8.55148875,37.6095456 C8.05565606,37.3698908 7.43051999,37.2388931 6.86545399,37.249048 C5.51133186,36.7545062 3.99023528,37.0896167 2.74810822,36.40721 C2.35408923,35.9553186 2.4579392,35.2414318 2.67276609,34.7732927 C2.98838854,34.5813658 3.37018989,34.4006093 3.70719322,34.602691 C4.24375138,35.1703478 5.18247363,34.9956842 5.91247782,35.1307438 C6.02956356,35.1124651 6.16497578,35.0352881 6.24235418,34.9296776 C6.32176886,34.7611069 6.23522722,34.5275451 6.07130718,34.4463062 C5.53373088,34.3488195 5.15702021,33.9680122 4.64082478,33.8431074 C3.89860296,33.7121097 3.0342047,33.6643818 2.52717251,33.0713379 C2.01606777,32.4610307 1.3278072,31.8436151 1.0936357,31.0759076 C0.758668653,30.6859609 0.827901964,30.1843107 0.728124545,29.7364813 C0.588639785,28.4671236 1.04069258,27.0403656 0.816702458,25.798426 C0.840119608,24.8966743 1.02542053,23.960396 0.876772537,23.1063722 C1.2066489,22.2482864 0.213965393,21.8014725 0.33105114,20.9982229 C0.371776618,19.8507235 -0.414225096,18.5427774 0.537732938,17.5343996 L0.62020203,17.1789794 C1.18628617,16.7209952 1.71775365,15.926885 2.47524752,15.9157146 C3.31215609,15.0698147 4.50643071,15.4496065 5.55002107,15.5653719 C5.88295185,15.7877634 6.33602278,16.1117035 6.73716873,15.8151815 C6.92145152,15.8080731 7.04159168,15.9126682 7.17089507,15.9989845 C7.44273763,16.035542 7.77057772,15.8608784 7.9986404,16.1056106 C8.2440114,16.1370906 8.3295349,15.8527545 8.49141867,15.7319117 C9.06870231,15.2475248 9.29778312,14.5112973 9.99011624,14.1274435 C10.2456686,13.831937 10.4533685,13.503935 10.6030347,13.1464839 C10.9563282,12.8895659 11.1609737,12.3970551 11.624226,12.3462808 C12.7146507,11.7197258 13.7643499,10.9093679 14.8557927,10.2848439 C15.3088636,10.2929678 15.6479032,9.76593044 16.1213369,9.83701447 C16.6029156,9.62274689 17.0396964,9.21756791 17.5406197,9.100787 C18.1515019,8.75349073 18.7450757,8.30870779 19.4027922,8.15333841 C19.8008837,7.63442498 20.4097296,7.83346027 20.8851996,7.54201574 C21.378996,7.50139629 21.7821782,7.0901244 22.2708839,7.02716425 C22.8359499,7.05661335 23.2818939,6.54582381 23.8418692,6.54582381 C24.145274,6.23813151 24.5301298,6.30820005 24.8925866,6.26148769 C25.6124094,5.95176441 26.3546312,5.72429551 27.1355422,5.66031988 C27.6140666,5.27545062 28.2666924,5.59431328 28.769652,5.30083778 C29.45384,5.16984006 30.2021707,5.34856563 30.8507239,5.04290429 C31.6723604,5.16882457 32.3443308,4.6529576 33.2066928,4.94338665 C33.8745906,4.82355928 34.5923771,4.93424727 35.2663838,4.82355928 C36.0472948,5.21350597 36.7233377,4.71287129 37.4604689,4.89667428 C37.6488242,5.19116527 37.974628,4.97994415 38.2169446,4.93526276 C38.5732925,4.98603707 39.0314542,5.23076923 39.3521673,4.97892866 C39.8724353,4.5432851 40.1279876,3.93805534 40.6665821,3.51459761 C41.8486391,2.79563341 44.0773408,0.378776339 45.4304448,0.273165778 C45.8132643,-0.0700685453 46.3294597,0.157400355 46.7743856,0.0385884742 C47.1989487,0.126935771 47.6805274,0.13505966 48.0653832,0.304645849 L48.0653832,0.304645849 Z M53.6641182,20.5625793 C52.9229145,20.4041635 52.1206226,19.8618939 51.3753464,20.2183295 C50.0650041,20.0528053 48.7373536,19.7938563 47.4514466,19.7197258 C46.7764218,19.9715664 46.0056922,19.8101041 45.3001233,19.9106372 C44.8490886,20.1198274 44.3400201,20.0649911 43.8370605,20.0416349 C43.2709764,20.5097741 42.4829384,19.9756283 41.9239812,20.440721 C41.0046035,20.2112211 40.3132886,20.9870526 39.3827114,20.6803757 C38.7942283,20.952526 38.1029133,20.7626301 37.4961037,20.9129221 C35.7387993,21.4430058 33.7381602,21.0459507 31.833226,20.7575527 L31.4605879,20.8682407 C31.8719152,21.2815435 32.3972739,21.4947956 32.903288,21.7567911 C33.8562641,22.0025387 34.9639971,22.0979944 35.7907243,22.6260472 C36.9809264,22.8748413 37.9410295,23.5359228 38.9683297,24.0822544 C39.7787667,24.1919269 40.2440553,24.8783955 41.0606011,24.99213 C41.5900323,25.5953288 42.5460629,25.4876872 43.0989112,26.0644834 C43.9042575,26.3346027 44.665824,26.7001777 45.4579345,27.0170094 C46.1237961,27.1297284 46.9026708,27.4201574 47.4962446,27.0363036 C48.2965003,26.936786 49.1130461,26.8921046 49.8440684,26.4523991 C50.4254246,26.5448083 50.9996538,25.9131759 51.5301032,26.4706778 C51.9628114,26.5955826 52.3344314,27.0972328 52.4240274,27.5542016 C52.8353547,28.4437675 53.7486236,28.8702716 54.6649468,28.914953 C55.4937103,28.5798426 56.4141061,28.6082762 57.3100666,28.5219599 C57.8832776,28.6631125 58.7201862,29.098756 59.224164,28.4640772 C59.7128697,28.4417365 60.1272515,28.0538208 60.6241023,28.0385885 C61.0252482,27.703478 61.4946094,27.6953542 61.9344445,27.484133 C63.3018024,27.6202082 64.9379485,28.2264534 65.9184143,26.8809342 C66.8296469,25.3505966 65.2902238,24.2538715 64.6732329,22.9540493 C64.3749187,22.7824321 64.0725321,22.6270627 63.7294199,22.5448083 C62.9546177,22.7215029 62.0454214,22.4026403 61.239057,22.2807819 C61.0568105,21.7933486 60.5192342,22.1040873 60.2535004,21.7781163 C59.3667032,21.5963442 58.4554706,21.4623001 57.6592875,21.1282051 C56.2766576,20.7159177 55.0650746,20.9322163 53.6641182,20.5625793 L53.6641182,20.5625793 Z" id="Stroke-8"></path>
                    </g>
                    <path d="M55.6393038,5.32927139 C55.6016328,6.03604976 53.9135617,7.68012186 53.7455691,8.29956842 C53.5694315,8.8956588 53.7231701,9.75272912 53.2253012,10.0919015 L51.1513562,9.78217822 C50.8398063,10.2289921 50.2564139,9.55877126 50.0914757,10.1213506 C50.3052844,10.4402133 50.6901402,10.2696116 50.9945631,10.4391978 L53.2171561,10.859609 C53.5154702,11.5470932 54.4979723,11.0880934 54.8207217,11.7461285 C55.6393038,12.5189134 56.5810805,13.0693069 57.5238753,13.6359482 C58.3383849,13.8959127 59.2730346,13.9629348 59.9164971,14.5387154 C60.7452606,14.6585428 61.2064766,15.4232039 62.0148773,15.5907591 C62.3284635,15.9532876 62.830405,16.0071084 63.1063201,16.4518913 C63.7630184,16.622493 64.2608874,17.0571211 64.8788965,17.3089617 C65.135467,17.7842092 65.6445355,17.83803 65.9275776,18.27672 C66.4773715,18.5641026 66.9141523,19.0464585 67.4456197,19.377507 C67.990323,19.5288144 68.2611474,20.1553694 68.7956693,20.3371414 C68.9636619,20.6255395 69.2589216,20.7006855 69.5022563,20.87738 C70.0469596,21.5912668 70.5845359,22.3335872 71.4509704,22.531607 C71.7940826,23.0139629 72.4375451,22.9895913 72.7704759,23.5156131 C73.3976483,23.5521706 73.6715271,24.2071592 74.2467745,24.3523737 C74.6010861,24.5798426 74.2233573,25.0875857 74.6764283,25.2754506 C75.1091364,25.4298045 75.3229452,26.4320894 75.8869931,25.8989591 C76.0997837,25.3993399 75.2140046,25.1911653 75.6680936,24.6692054 L75.9888068,24.5219599 L79.3303322,25.0957096 C79.4993429,25.2429551 79.7650767,25.3363798 79.7660948,25.6227469 L79.6978796,25.8948972 C79.3272778,26.2757045 79.0075828,26.8484387 78.4465893,26.9428789 C78.3722653,27.262757 78.6685432,27.5521706 78.7387946,27.8720487 C78.548403,28.5575019 78.6339265,29.2317847 78.7846108,29.8705255 C78.3905918,30.5925362 79.3904023,31.0332572 79.2906248,31.7156639 C79.5624674,31.9492257 79.6306826,32.4305661 80.0114658,32.5148515 C80.0674633,32.6001523 80.1723314,32.7098248 80.0745903,32.8093425 C79.8892894,32.9200305 79.6764987,32.8002031 79.5176694,32.7189642 C79.1939018,32.3523737 78.9118779,31.8436151 78.4506619,31.6912922 C76.7666634,30.3061691 76.7167747,28.1584158 75.2934192,26.571211 C75.2048413,26.092917 74.6713376,26.1122112 74.4758553,25.6978929 L74.0706368,25.4897182 L71.4071906,25.1129728 C71.1098946,25.2906829 70.7545648,25.3394263 70.4348698,25.2378776 L67.1198159,24.6692054 C66.4895892,24.3665905 65.6638801,24.3310485 64.9562749,24.2325463 C63.8597415,24.3005839 62.6176144,24.0132013 61.6595475,23.5521706 C60.59254,23.3348566 59.4909159,23.2404163 58.4605613,23.2861132 C57.8303345,23.2465093 57.12782,22.9042904 56.5719173,23.1784717 C56.1320821,23.1835491 55.6729024,23.0728611 55.2961917,23.339934 C54.7738875,23.3460269 54.2159484,23.1693323 53.7750951,23.4892105 C52.7549219,23.4221884 51.8192541,23.7532369 50.8051897,23.6892612 C50.3256472,24.0853008 49.6801484,23.7248032 49.1924608,24.0792079 C48.9297814,24.1848185 48.6864467,23.9471947 48.4146042,24.0101549 C47.8749916,24.183803 47.268182,24.0568672 46.7580954,24.3371414 C46.2622627,24.2691038 45.7470854,24.0853008 45.3530664,24.4498604 C44.7757828,24.55344 44.0681776,24.033511 43.5937258,24.5605484 L39.2971879,23.8324448 C38.8766974,23.9827367 38.4612975,23.7156639 38.0591334,23.9146992 C37.4696321,23.8375222 36.770172,23.8375222 36.4077153,23.3328256 C36.2631398,23.193704 36.1368909,22.9032749 35.9057738,23.0525514 C35.5382263,23.3886773 36.0472948,23.7136329 36.1623443,24.033511 C36.5930162,24.4488449 36.8719857,25.2124905 37.4441787,25.4348819 C37.6080987,25.5963442 37.6478061,25.8217822 37.5449742,26.0208175 C37.0267425,26.4036558 36.5726535,25.8167047 36.0584943,25.7781163 C35.0047226,25.4480833 34.2818454,24.5707032 33.5436961,23.7197258 C33.1170967,23.1723788 32.576466,22.5214521 32.9195781,21.7689769 C32.866635,21.6948464 32.8747801,21.5547093 32.7627851,21.543539 L32.5408312,21.5658797 C31.4850232,22.1020564 30.8323974,23.4607768 29.602488,23.3328256 C28.6006413,23.6019294 27.4776362,23.3328256 26.383139,23.2069053 C25.4128545,23.0403656 24.5545651,23.3683676 23.5659541,23.116527 C22.8970382,23.2119827 22.1700884,23.0302107 21.5164445,23.1815182 C20.2620998,23.045443 19.1696388,23.6435644 17.9539833,23.6811373 L16.6446592,23.525768 C16.620224,23.1480071 17.0987483,23.0911399 17.3359742,22.9256156 C17.6739957,23.1490226 17.9478745,22.8321909 18.2543337,22.7915715 C18.6900963,22.8748413 19.185929,22.970297 19.557549,22.6351866 C19.9566587,22.7326733 20.2895895,22.3396801 20.4921987,22.0472201 C20.4626728,21.8278751 20.5950306,21.5506474 20.3995483,21.4064483 C20.0167288,21.3272404 19.5606034,21.2399086 19.2327633,21.5577558 C18.8305992,21.5110434 18.337821,21.3170856 17.9906363,21.6684438 C17.7177756,21.6288398 17.4886948,21.4003554 17.4184433,21.1495303 C17.698431,20.7870018 18.1270666,20.6072607 18.3510567,20.219345 C18.4477798,19.7644072 18.918159,19.5430312 19.0393173,19.1094186 C20.0869802,18.2685961 21.1224255,17.3709063 22.2892104,16.7382584 C23.1240827,16.43869 23.8988849,15.776593 24.6645239,15.2759584 C25.304932,15.2586951 25.7773475,14.4970805 26.4208101,14.4818482 C26.8535183,14.2675806 27.223102,13.800457 27.7168984,13.8400609 C28.1180444,13.4775324 28.6403486,13.6207159 29.0353857,13.2307692 C29.751136,12.8134044 30.5412103,12.7149023 31.2539061,12.2559025 C31.7802829,12.0071084 32.3392401,11.9126682 32.851363,11.6059914 C33.2402913,11.6334095 33.6180201,11.6090378 33.9468783,11.3856309 C34.4508561,11.5034273 34.8245124,10.8880427 35.3376534,11.1865956 C36.2437952,11.0779386 37.1591003,11.005839 38.0092447,10.6260472 C38.7351763,10.71541 39.3643849,10.3843615 40.0821715,10.4239655 C41.223503,10.203605 42.479884,10.4798172 43.6059434,10.1741559 C43.9276747,10.1406448 44.2799501,10.239147 44.5721554,10.0746382 C44.9397028,10.1975121 45.327613,10.1061183 45.6910879,10.0583905 C46.651191,10.0787002 47.647947,10.2838284 48.6335036,10.3955319 C49.1140642,10.3955319 49.1018466,9.81061183 49.3400906,9.51612084 C49.692366,9.11703478 50.2248516,8.83574511 50.3948805,8.3229246 L52.1216407,7.01193196 C52.6093283,7.17644072 53.7272427,5.37801472 54.2118759,5.47854785 C54.5173169,5.15156131 55.4784382,4.84894643 55.6393038,5.32927139" id="Fill-10" fill="#FFFFFE"></path>
                    <path d="M94.0444472,27.6354405 C94.0444472,28.2183295 93.1831033,28.3330795 93.1148881,28.9068291 C92.6913432,29.134298 92.4490266,29.4795633 92.4368089,29.9609038 L92.0998056,31.9543031 C91.8931238,32.1543539 91.4145995,32.039604 91.4807784,32.4508759 C91.790292,32.6915461 92.1160958,33.0500127 92.281034,33.4338665 C92.0366811,34.2310231 92.74225,34.8585936 92.5314957,35.6933232 C92.861372,36.1634933 92.8990431,36.7189642 93.0263102,37.2520944 C93.1749582,37.6572734 93.3928395,38.0563595 93.4050572,38.5082508 C93.6005395,38.7875095 93.5985032,39.1134806 93.7278066,39.4140645 C94.3315618,40.3148007 95.0157498,41.1302361 95.5808158,42.0482356 C95.6144143,42.2289921 95.4179139,42.1812643 95.3395173,42.2066514 C94.8640474,41.9791825 94.4425387,41.6674283 93.9517967,41.4988576 C93.2258651,41.0429043 92.526405,40.5453161 91.7210587,40.2538715 C91.3983093,39.7938563 90.8352795,39.7735466 90.5695458,39.2404163 C90.0818582,38.9306931 89.827324,38.2361005 89.3213099,37.98426 C89.0352134,37.5516629 88.5963964,37.395278 88.3388078,36.9433866 C87.708581,36.221376 87.19544,35.3125159 86.4654358,34.7895405 C86.0907614,34.492003 86.0398546,33.7953795 85.500242,33.8075654 C85.3526121,33.6257933 85.2436715,33.1881188 84.9412848,33.3759838 C84.6419526,33.8644326 84.1848091,33.251079 83.8671504,33.6278243 C83.6390877,33.7953795 83.4914578,34.0411272 83.5413465,34.3406956 C83.6065073,34.456461 83.663523,34.608784 83.6177068,34.7235339 L81.961198,35.9339934 C81.5254354,35.9928916 81.1660331,36.3757299 80.7088896,36.296522 C80.4350108,36.4854024 80.1305878,36.5128205 79.8119109,36.4650927 C79.4199282,37.0225946 78.7968284,36.7453668 78.3651384,37.1952272 C77.8998498,37.1312516 77.5638646,37.5953288 77.1291201,37.6197004 C76.1679989,38.4351358 75.0480482,38.7204874 74.1551421,39.6090378 C73.2683449,40.2162986 72.4426358,40.8052805 71.6545978,41.5323686 C71.3033406,42.1061183 70.6639506,42.5041889 70.1151748,42.8758568 C69.3301912,43.3835999 68.6704385,44.1350597 67.8691647,44.5554709 C67.5932496,44.586951 67.3458423,44.7382584 67.1065801,44.914953 C66.4274828,44.8235593 65.8430722,45.1261742 65.2606979,45.4105103 C64.7740284,45.2713887 64.4716418,45.9893374 63.9941355,45.8583397 C63.536992,46.1000254 63.1419549,46.6341711 62.6267776,46.602691 C62.0342219,46.9794364 61.4233398,47.2708809 60.8206027,47.5582635 C60.4041847,47.4953034 60.0315466,47.6059914 59.6711261,47.7705001 C58.7996009,47.6598121 57.9912002,47.8263519 57.186872,47.9908606 C56.5882075,48.0954557 55.9091101,47.4313277 55.432622,48.0741305 L53.1927208,47.7664382 C52.5757298,48.3097233 51.7612203,47.7207413 51.0536151,47.7014471 L50.7023578,47.3318101 L46.3701852,46.6534653 C45.8142824,47.1500381 45.0272626,46.8301599 44.5528108,47.4963189 C43.1997068,47.2069053 43.2373778,45.1089109 41.8242038,44.8885504 C41.632794,44.7839553 41.5676333,44.4102564 41.2784824,44.5453161 C41.0544923,44.6113227 40.9791501,44.8347296 40.829484,44.9840061 C41.0606011,45.2399086 41.3558608,45.3922315 41.6725014,45.5191673 C42.3566894,46.090886 42.6193687,46.9987306 43.2801396,47.6293476 C43.5825263,48.1655242 44.2728231,48.5899975 44.138429,49.3059152 C43.841133,49.4521452 43.5570728,49.6115765 43.2567224,49.7303884 C42.6478766,49.6846915 42.0604115,49.4744859 41.6083587,49.1190658 C40.8315203,48.9738512 40.3804856,48.2762122 39.8663265,47.6994161 C39.4264913,47.0129474 39.2615531,46.2675806 38.8044096,45.5912668 C38.7290675,44.6448337 37.974628,43.8395532 37.3484738,43.1926885 C36.8821671,43.2008124 36.3374638,42.8118812 35.9566806,43.2221376 C35.9332635,43.5775578 36.2173237,43.8588474 36.182707,44.2264534 C36.3741168,44.6884996 37.2212067,44.8550394 36.9106749,45.5110434 L36.7386098,45.5668952 C35.4751019,45.3648134 34.442711,44.7717695 33.3013795,44.3828383 C32.6670802,43.7562833 31.6255261,43.8415842 30.9311567,43.341965 C30.5737906,43.1733943 30.1268285,43.1571465 29.7541904,43.2069053 C28.063065,43.0342727 26.4381184,42.5864433 24.7968817,42.3417111 C23.542537,41.7791318 21.9522071,41.7192181 20.5471781,41.4795633 C19.5158054,41.4988576 18.3571656,41.2531099 17.3960443,40.9078446 C15.7558257,40.5016502 13.9954669,40.5016502 12.382738,40.0629601 C12.2788881,39.9004824 12.286015,39.7105864 12.3308131,39.5135821 L12.5079689,39.4303123 L24.0047711,41.3028687 C24.4364612,41.3617669 25.037162,41.6593044 25.3476938,41.2368621 C25.3507482,40.6377253 24.643143,40.8073115 24.2705049,40.6346789 C23.2197876,40.1980198 21.9613703,40.1208429 21.0501378,39.4556994 C20.1307601,39.1408987 19.3824295,38.5275451 18.3561474,38.3914699 C17.9387113,38.0939325 17.4734227,37.8816959 17.1048571,37.5049505 C15.9533443,37.1515613 15.0716377,36.3381569 13.7551866,36.2772277 C13.3805122,35.9634425 12.9712212,35.7116019 12.5049145,35.5602945 C12.3124866,35.2993145 12.0569342,35.1439452 11.8380348,34.9398324 C11.230207,34.241178 11.7219672,33.2561564 11.2851864,32.5189134 C11.0795228,31.8710333 11.69855,31.118558 11.1518105,30.5630871 C11.2464972,29.0124397 11.7606564,27.3541508 11.4317981,25.9162224 C11.6588427,25.0977405 11.0795228,24.4925108 11.1711551,23.7136329 C10.8494238,23.1967504 10.7883356,22.6250317 10.7211386,22.0472201 C10.8514601,21.4612846 11.4806687,21.2663112 11.854325,20.8672252 C12.0895146,20.7545062 12.3481214,20.7545062 12.6240365,20.8215283 C13.3917117,21.1373445 14.4281751,20.808327 14.9677877,21.5161208 C15.3679155,21.6085301 15.8729114,21.5912668 16.1752981,21.798426 C16.092829,22.1030718 15.735463,22.1792333 15.5145272,22.3742067 C15.0543294,22.3528814 14.7254711,22.897182 14.2673095,22.8809342 C14.1237522,23.1398832 13.9567777,23.3825844 13.7979484,23.6283321 C13.7103886,23.8750952 13.6472641,24.2061437 13.8997621,24.3848693 C14.2296384,24.4793095 14.6888182,24.5544554 15.0675651,24.5757807 C15.602087,24.1848185 16.3147829,24.5564864 16.865595,24.2142676 C17.6923222,24.0487433 18.6809331,24.5727342 19.4414814,24.0934247 C20.0635631,24.2437167 20.5023801,23.6039604 21.1611147,23.891343 C21.5164445,24.0538208 21.7893052,23.8273674 22.0835468,23.7288652 L24.9821826,24.1726326 L25.3965643,23.9553186 L29.305192,24.5646103 C29.832587,23.9512567 30.6053529,24.810358 31.1327478,24.1797411 C31.3964453,24.3066768 31.7466844,24.1076415 31.9778015,24.3452653 C32.4512352,25.0114242 33.060081,25.4369129 33.6760539,25.873572 C34.0822905,25.909114 34.3938404,26.1030718 34.6198668,26.4534146 C34.9589064,26.4503681 35.2724926,26.6148769 35.4720474,26.9337395 L38.7677567,27.4424981 C38.9937831,27.377507 39.1353041,27.1591775 39.3236595,27.0220868 C39.431582,26.8311754 39.2116644,26.6595583 39.4000197,26.5224676 C39.8306917,26.7103326 40.2338739,26.9682661 40.6940718,27.1307438 C41.3925137,27.7481594 42.4859928,27.7126174 43.2821759,28.1787256 C44.1720275,28.4285352 45.1331488,28.5575019 45.8254819,29.1617162 C46.7082067,29.2754506 47.2447648,29.9954303 48.1244351,30.1335364 C48.5306718,30.5742574 49.1690436,30.6219853 49.699493,30.8738258 C50.2004163,31.5714648 51.3417478,31.1886266 51.8223085,31.9309469 L55.335899,32.4468139 C55.8296955,32.1259203 56.4568678,32.3848693 56.9516824,32.0264026 C57.648088,32.1594313 58.1917731,31.6374714 58.8953058,31.7755776 C59.2577625,31.6120843 59.6690898,31.671998 59.95315,31.9766438 C60.3858582,32.8052805 60.9661963,33.8512313 61.8794651,34.1386139 C62.6583399,34.4838792 63.3455823,34.1274435 64.0857679,34.128459 C64.6060358,34.126428 65.1089955,34.0370652 65.5966831,33.8624016 C66.2869799,33.4115258 66.9548777,34.5021579 67.5952859,33.7903021 C68.5737155,33.9903529 69.3373182,33.2256918 70.221061,32.9961919 C71.0426975,32.5808581 71.9793835,32.9027672 72.90487,33.063214 C73.573786,32.6164001 74.3638602,32.7017009 75.0083409,32.1259203 C75.4430854,32.0528053 75.8065602,31.6435644 76.3074836,31.8263519 C77.0161069,31.8324448 77.2411152,32.6661589 77.864215,32.8479309 C78.7978466,33.5587713 80.146878,33.4521452 81.3258806,33.6968774 C81.7830241,33.7476517 82.2615484,33.725311 82.5802253,33.3323178 C82.7879252,32.7880173 82.0905014,32.8946433 81.8695657,32.6468647 L80.53377,31.0637218 C80.4899901,30.8778878 80.5755137,30.6727596 80.7659053,30.6199543 C81.2933002,30.6534653 81.9540711,30.9601422 82.4275047,30.604722 C83.5790176,30.7844631 84.8588157,30.865702 85.9156419,31.2881442 C86.02051,31.4160955 86.1956295,31.5166286 86.3768579,31.4770246 C86.6904441,31.2201066 87.0997351,31.3368875 87.4041581,30.9895913 C87.5416066,30.9895913 87.7258893,30.9906068 87.7839231,30.8250825 C87.7808687,30.5387154 87.4194301,30.6351866 87.2789272,30.5722265 C86.9011984,30.2452399 86.3004976,30.126428 85.8138282,30.1904037 C85.6865611,30.1751714 85.574566,30.1142422 85.5430038,30.0035542 C85.5175503,29.8563087 85.693688,29.7791318 85.797538,29.760853 C86.1447227,29.7669459 86.4196197,29.4419904 86.7729132,29.4369129 C87.2382018,29.2906829 87.2015488,28.5605484 87.7859594,28.6915461 C88.2940098,28.2254379 88.9751434,28.2162986 89.4882844,27.7176948 C90.0065161,28.0213252 90.3801723,27.3571973 90.9238575,27.5826352 C91.2445706,27.7969028 91.5184494,27.521706 91.8157454,27.4435136 C92.496879,27.6171617 93.1291421,27.5785732 93.7471512,27.4455446 C93.8784908,27.4435136 93.976232,27.5095202 94.0444472,27.6354405" id="Fill-11" fill="#FFFFFE"></path>
                    <path d="M24.7032131,20.7433359 C24.6543425,21.2673267 23.3786169,21.1942117 23.1210283,21.5943133 C22.9540538,21.6430566 22.769771,21.7415588 22.598724,21.6217314 C22.4673844,21.3648134 22.1711065,21.3810612 22.0122772,21.1860878 C22.0499482,20.8915969 22.1935055,20.6671744 22.3441898,20.4437675 L22.9621989,20.14623 C23.3368733,20.3544047 24.5820548,20.1878649 24.7032131,20.7433359" id="Fill-12" fill="#032C55"></path>
                    <path d="M24.7032131,20.7433359 C24.6543425,21.2673267 23.3786169,21.1942117 23.1210283,21.5943133 C22.9540538,21.6430566 22.769771,21.7415588 22.598724,21.6217314 C22.4673844,21.3648134 22.1711065,21.3810612 22.0122772,21.1860878 C22.0499482,20.8915969 22.1935055,20.6671744 22.3441898,20.4437675 L22.9621989,20.14623 C23.3368733,20.3544047 24.5820548,20.1878649 24.7032131,20.7433359 L24.7032131,20.7433359 Z" id="Stroke-13"></path>
                    <path d="M21.408522,21.2297537 C21.4482293,21.4338665 21.1865681,21.3688753 21.0776275,21.43082 C20.9075986,21.3729373 20.7446967,21.4541762 20.5991031,21.3536431 C20.7233158,21.0733689 21.1539877,21.0581366 21.408522,21.2297537" id="Fill-14" fill="#032C55"></path>
                    <path d="M21.408522,21.2297537 C21.4482293,21.4338665 21.1865681,21.3688753 21.0776275,21.43082 C20.9075986,21.3729373 20.7446967,21.4541762 20.5991031,21.3536431 C20.7233158,21.0733689 21.1539877,21.0581366 21.408522,21.2297537 L21.408522,21.2297537 Z" id="Stroke-15"></path>
                    <path d="M40.5454238,24.9179995 C40.2074023,25.1942117 39.6942613,25.1180503 39.3470766,24.921046 C39.2666438,24.8560548 39.1434492,24.7220107 39.2564624,24.622493 C39.6565902,24.6214775 40.2236925,24.5148515 40.5230248,24.8844884 L40.5454238,24.9179995" id="Fill-16" fill="#FFFFFE"></path>
                    <path d="M40.5454238,24.9179995 C40.2074023,25.1942117 39.6942613,25.1180503 39.3470766,24.921046 C39.2666438,24.8560548 39.1434492,24.7220107 39.2564624,24.622493 C39.6565902,24.6214775 40.2236925,24.5148515 40.5230248,24.8844884 L40.5454238,24.9179995 L40.5454238,24.9179995 Z" id="Stroke-17"></path>
                    <path d="M16.4369593,23.6334095 C16.4593583,23.7552678 16.3555084,23.7603453 16.2791481,23.7776085 C16.2435133,23.7349581 16.1803888,23.7522214 16.1549354,23.7004316 C16.2058422,23.5856816 16.3320912,23.6059914 16.4369593,23.6334095" id="Fill-18" fill="#FFFFFE"></path>
                    <path d="M16.4369593,23.6334095 C16.4593583,23.7552678 16.3555084,23.7603453 16.2791481,23.7776085 C16.2435133,23.7349581 16.1803888,23.7522214 16.1549354,23.7004316 C16.2058422,23.5856816 16.3320912,23.6059914 16.4369593,23.6334095 L16.4369593,23.6334095 Z" id="Stroke-19"></path>
                    <path d="M31.275287,38.4483371 C31.3516473,38.6453415 31.4921502,38.8291445 31.4249531,39.0718456 C30.9545739,39.5450622 30.2876942,39.636456 29.6931022,39.3571973 C29.2105053,38.8494542 28.4479207,38.8118812 27.8309297,38.5417619 C27.7179165,38.4706778 27.7749322,38.3254633 27.8207484,38.2564103 C28.5802785,38.0858086 29.3652621,38.0299568 30.1685721,38.0421427 C30.5595367,38.1396293 31.0462062,38.0756537 31.275287,38.4483371" id="Fill-20" fill="#032C55"></path>
                    <path d="M31.275287,38.4483371 C31.3516473,38.6453415 31.4921502,38.8291445 31.4249531,39.0718456 C30.9545739,39.5450622 30.2876942,39.636456 29.6931022,39.3571973 C29.2105053,38.8494542 28.4479207,38.8118812 27.8309297,38.5417619 C27.7179165,38.4706778 27.7749322,38.3254633 27.8207484,38.2564103 C28.5802785,38.0858086 29.3652621,38.0299568 30.1685721,38.0421427 C30.5595367,38.1396293 31.0462062,38.0756537 31.275287,38.4483371 L31.275287,38.4483371 Z" id="Stroke-21"></path>
                    <path d="M40.7816316,44.9464331 C40.7979217,45.0388423 40.6940718,45.0073623 40.6574189,45.0388423 L40.525061,45.0195481 C40.4782268,44.952526 40.5433875,44.9261234 40.5729135,44.8844884 C40.6421468,44.9007362 40.732761,44.8865194 40.7816316,44.9464331" id="Fill-22" fill="#265581"></path>
                    <path d="M40.7816316,44.9464331 C40.7979217,45.0388423 40.6940718,45.0073623 40.6574189,45.0388423 L40.525061,45.0195481 C40.4782268,44.952526 40.5433875,44.9261234 40.5729135,44.8844884 C40.6421468,44.9007362 40.732761,44.8865194 40.7816316,44.9464331 L40.7816316,44.9464331 Z" id="Stroke-23"></path>
                    <polyline id="Fill-24" fill="#FFFFFE" points="14.7611059 48.3361259 16.3473633 49.4003554 18.9375036 45.614623 18.9660115 45.6339172 17.3207022 50.057375 18.8713247 51.1002793 22.3930604 47.9411018 22.4062962 47.9492257 19.8650264 51.7694846 21.5337528 52.8915969 24.8080812 48.0517898 22.0611477 46.203605 19.6430725 48.4305661 19.6298367 48.4234577 20.7874584 45.3465347 18.0354343 43.4942879 14.7611059 48.3361259"></polyline>
                    <polyline id="Fill-25" fill="#FFFFFE" points="23.6759129 53.6410256 25.3466756 54.383346 26.0013377 52.914953 24.3315931 52.1736481 23.6759129 53.6410256"></polyline>
                    <polyline id="Fill-26" fill="#FFFFFE" points="27.3238976 55.2414318 32.2313176 56.7392739 32.643663 55.3947702 29.8366595 54.5376999 30.0698129 53.7781163 32.6996606 54.5813658 33.112006 53.2368621 30.4811402 52.4336126 30.7244749 51.6425489 33.4744628 52.4813404 33.8878264 51.1358213 29.0343676 49.6582889 27.3238976 55.2414318"></polyline>
                    <polyline id="Fill-27" fill="#FFFFFE" points="34.2390836 57.2612338 36.0279502 57.6400102 36.3629173 56.0690531 34.5740507 55.6902767 34.2390836 57.2612338"></polyline>
                    <polyline id="Fill-28" fill="#FFFFFE" points="38.1395662 58.0665143 43.2221058 58.7804011 43.4175881 57.3881696 40.5118253 56.9809596 40.6217841 56.1939579 43.3463185 56.5747652 43.5428189 55.1845646 40.8182845 54.8017263 40.933334 53.982229 43.7820811 54.3813151 43.9785815 52.9911145 38.9540758 52.2843361 38.1395662 58.0665143"></polyline>
                    <polyline id="Fill-29" fill="#FFFFFE" points="45.305214 58.8118812 47.1327698 58.8748413 47.1897854 57.2693577 45.3612115 57.2053821 45.305214 58.8118812"></polyline>
                    <path d="M51.194118,54.3041381 L51.8141634,54.2696116 C52.265198,54.2462554 52.6968881,54.3000762 52.7243778,54.8250825 C52.7549219,55.4181264 52.3049054,55.4932724 51.8457256,55.5176441 L51.2582606,55.5470932 L51.194118,54.3041381 L51.194118,54.3041381 Z M49.2871475,58.9428789 L51.5321395,58.826098 L51.4272713,56.843869 L51.930231,56.8184818 C52.2071642,56.804265 52.4342088,56.8266057 52.5828568,57.0865702 C52.785466,57.4277735 52.8577537,58.3356182 52.9809483,58.750952 L55.3165544,58.6270627 C55.052857,58.0726073 55.030458,57.1678091 54.6547654,56.5686723 C54.428739,56.2691038 54.1243161,56.0507743 53.6335741,55.9939071 L53.6325559,55.9756283 C54.4592831,55.7319117 54.9968594,55.2515867 54.9500251,54.3569434 C54.8909732,53.2388931 54.0062122,52.8479309 52.6083102,52.921046 L48.9806883,53.1119573 L49.2871475,58.9428789 L49.2871475,58.9428789 Z" id="Fill-30" fill="#FFFFFE"></path>
                    <polyline id="Fill-31" fill="#FFFFFE" points="57.2418514 58.2442244 59.0429356 57.9273927 58.7619298 56.3462808 56.9628819 56.662097 57.2418514 58.2442244"></polyline>
                    <path d="M67.3091894,54.1051028 L67.2338473,53.8573242 C66.8011391,52.4488449 65.9224869,51.6161462 64.302631,52.1096725 C62.6104874,52.6235085 61.9283357,53.6034527 62.3559532,55.0038081 C62.7988428,56.4437675 63.9462831,56.9850216 65.6384267,56.4691546 C66.3439956,56.2538715 66.964041,55.9857832 67.4496923,55.6547347 L67.1187978,54.5752729 C66.8500096,54.8392993 66.3826848,55.0870779 65.8288183,55.2556486 C65.2362626,55.4384362 64.7088677,55.4658543 64.5174579,54.9560802 L67.3091894,54.1051028 L67.3091894,54.1051028 Z M64.2395065,54.0797157 C64.1142757,53.7578065 64.0674414,53.2307692 64.53273,53.0875857 C64.9898735,52.9494796 65.1924827,53.4389439 65.2892057,53.7578065 L64.2395065,54.0797157 L64.2395065,54.0797157 Z" id="Fill-32" fill="#FFFFFE"></path>
                    <polyline id="Fill-33" fill="#FFFFFE" points="69.6376686 55.0535669 71.3328666 54.3711602 70.7311476 52.883473 69.0349315 53.5658797 69.6376686 55.0535669"></polyline>
                    <polyline id="Fill-34" fill="#FFFFFE" points="74.7660243 52.7941102 77.1138481 51.5491241 76.2759214 45.3800457 74.2467745 46.4554455 74.9228174 50.057375 74.9085635 50.0654989 72.3000966 47.4892105 70.1742267 48.6153846 74.7660243 52.7941102"></polyline>
                    <polyline id="Fill-35" fill="#FFFFFE" points="79.417892 49.9994923 80.8972449 48.9291698 79.9503776 47.6313785 78.4720427 48.7027164 79.417892 49.9994923"></polyline>
                </g>
            </g>
        </g>
    </g>
</svg>